# xmcd CD database file
#
# Track frame offsets:
#	150
#	14327
#	43184
#	63450
#	81167
#	104746
#	130008
#	146086
#	164560
#	181978
#	198902
#	214715
#
# Disc length: 3265 seconds
#
# Revision: 0
# Processed by: cddbd v1.5.1PL0 Copyright (c) Steve Scherf et al.
# Submitted via: CDex 1.51
#
DISCID=b00cbf0c
DTITLE=ACIDMAN - Loop
DYEAR=2003
DGENRE=JPop
TTITLE0=Type A
TTITLE1=波､白く
TTITLE2=アイソトープ
TTITLE3=飛光
TTITLE4=Slow View
TTITLE5=リピート
TTITLE6=16185-0
TTITLE7=O
TTITLE8=Swayed
TTITLE9=ドライドアウト
TTITLE10=今､透明か
TTITLE11=Turn Around
EXTD=YEAR: 2003
EXTT0=
EXTT1=
EXTT2=
EXTT3=
EXTT4=
EXTT5=
EXTT6=
EXTT7=
EXTT8=
EXTT9=
EXTT10=
EXTT11=
PLAYORDER=
